<svg id="Layer_1" data-name="Layer 1" xmlns="http://www.w3.org/2000/svg" xmlns:xlink="http://www.w3.org/1999/xlink" viewBox="0 0 100 100"><defs><style>.cls-1{fill:none;stroke-miterlimit:10;stroke-width:2px;stroke:url(#linear-gradient);}.cls-2{fill:url(#linear-gradient-2);}.cls-3{fill:url(#linear-gradient-3);}.cls-4{fill:url(#linear-gradient-4);}.cls-5{fill:url(#linear-gradient-5);}.cls-6{fill:url(#linear-gradient-6);}.cls-7{fill:url(#linear-gradient-7);}.cls-8{fill:url(#linear-gradient-8);}.cls-9{fill:url(#linear-gradient-9);}.cls-10{fill:url(#linear-gradient-10);}.cls-11{fill:url(#linear-gradient-11);}.cls-12{fill:url(#linear-gradient-12);}.cls-13{fill:url(#linear-gradient-13);}.cls-14{fill:url(#linear-gradient-14);}.cls-15{fill:url(#linear-gradient-15);}.cls-16{fill:url(#linear-gradient-16);}.cls-17{fill:url(#linear-gradient-17);}.cls-18{fill:url(#linear-gradient-18);}.cls-19{fill:url(#linear-gradient-19);}.cls-20{fill:url(#linear-gradient-20);}.cls-21{fill:url(#linear-gradient-21);}.cls-22{fill:url(#linear-gradient-22);}.cls-23{fill:url(#linear-gradient-23);}.cls-24{fill:url(#linear-gradient-24);}.cls-25{fill:url(#linear-gradient-25);}.cls-26{fill:url(#linear-gradient-26);}.cls-27{fill:url(#linear-gradient-27);}.cls-28{fill:url(#linear-gradient-28);}.cls-29{fill:url(#linear-gradient-29);}.cls-30{fill:url(#linear-gradient-30);}.cls-31{fill:url(#linear-gradient-31);}.cls-32{fill:url(#linear-gradient-32);}.cls-33{fill:url(#linear-gradient-33);}.cls-34{fill:url(#linear-gradient-34);}.cls-35{fill:url(#linear-gradient-35);}.cls-36{fill:url(#linear-gradient-36);}.cls-37{fill:url(#linear-gradient-37);}.cls-38{fill:url(#linear-gradient-38);}.cls-39{fill:url(#linear-gradient-39);}.cls-40{fill:url(#linear-gradient-40);}.cls-41{fill:url(#linear-gradient-41);}.cls-42{fill:url(#linear-gradient-42);}.cls-43{fill:url(#linear-gradient-43);}.cls-44{fill:url(#linear-gradient-44);}.cls-45{fill:url(#linear-gradient-45);}.cls-46{fill:url(#linear-gradient-46);}.cls-47{fill:url(#linear-gradient-47);}.cls-48{fill:url(#linear-gradient-48);}.cls-49{fill:url(#linear-gradient-49);}.cls-50{fill:url(#linear-gradient-50);}.cls-51{fill:url(#linear-gradient-51);}.cls-52{fill:url(#linear-gradient-52);}.cls-53{fill:url(#linear-gradient-53);}.cls-54{fill:url(#linear-gradient-54);}.cls-55{fill:url(#linear-gradient-55);}.cls-56{fill:url(#linear-gradient-56);}.cls-57{fill:url(#linear-gradient-57);}.cls-58{fill:url(#linear-gradient-58);}.cls-59{fill:url(#linear-gradient-59);}.cls-60{fill:url(#linear-gradient-60);}.cls-61{fill:url(#linear-gradient-61);}.cls-62{fill:url(#linear-gradient-62);}.cls-63{fill:url(#linear-gradient-63);}.cls-64{fill:url(#linear-gradient-64);}.cls-65{fill:url(#linear-gradient-65);}.cls-66{fill:url(#linear-gradient-66);}.cls-67{fill:url(#linear-gradient-67);}.cls-68{fill:url(#linear-gradient-68);}.cls-69{fill:url(#linear-gradient-69);}.cls-70{fill:url(#linear-gradient-70);}.cls-71{fill:url(#linear-gradient-71);}.cls-72{fill:url(#linear-gradient-72);}.cls-73{fill:url(#linear-gradient-73);}.cls-74{fill:url(#linear-gradient-74);}.cls-75{fill:url(#linear-gradient-75);}.cls-76{fill:url(#linear-gradient-76);}.cls-77{fill:url(#linear-gradient-77);}.cls-78{fill:url(#linear-gradient-78);}.cls-79{fill:url(#linear-gradient-79);}.cls-80{fill:url(#linear-gradient-80);}.cls-81{fill:url(#linear-gradient-81);}.cls-82{fill:url(#linear-gradient-82);}.cls-83{fill:url(#linear-gradient-83);}.cls-84{fill:url(#linear-gradient-84);}.cls-85{fill:url(#linear-gradient-85);}.cls-86{fill:url(#linear-gradient-86);}.cls-87{fill:url(#linear-gradient-87);}.cls-88{fill:url(#linear-gradient-88);}.cls-89{fill:url(#linear-gradient-89);}.cls-90{fill:url(#linear-gradient-90);}.cls-91{fill:url(#linear-gradient-91);}.cls-92{fill:url(#linear-gradient-92);}.cls-93{fill:url(#linear-gradient-93);}.cls-94{fill:url(#linear-gradient-94);}.cls-95{fill:url(#linear-gradient-95);}.cls-96{fill:url(#linear-gradient-96);}.cls-97{fill:url(#linear-gradient-97);}.cls-98{fill:url(#linear-gradient-98);}.cls-99{fill:url(#linear-gradient-99);}.cls-100{fill:url(#linear-gradient-100);}.cls-101{fill:url(#linear-gradient-101);}.cls-102{fill:url(#linear-gradient-102);}.cls-103{fill:url(#linear-gradient-103);}.cls-104{fill:url(#linear-gradient-104);}.cls-105{fill:url(#linear-gradient-105);}.cls-106{fill:url(#linear-gradient-106);}.cls-107{fill:url(#linear-gradient-107);}.cls-108{fill:url(#linear-gradient-108);}.cls-109{fill:url(#linear-gradient-109);}.cls-110{fill:url(#linear-gradient-110);}.cls-111{fill:url(#linear-gradient-111);}.cls-112{fill:url(#linear-gradient-112);}.cls-113{fill:url(#linear-gradient-113);}.cls-114{fill:url(#linear-gradient-114);}.cls-115{fill:url(#linear-gradient-115);}.cls-116{fill:url(#linear-gradient-116);}.cls-117{fill:url(#linear-gradient-117);}.cls-118{fill:url(#linear-gradient-118);}.cls-119{fill:url(#linear-gradient-119);}.cls-120{fill:url(#linear-gradient-120);}.cls-121{fill:url(#linear-gradient-121);}.cls-122{fill:url(#linear-gradient-122);}.cls-123{fill:url(#linear-gradient-123);}.cls-124{fill:url(#linear-gradient-124);}.cls-125{fill:url(#linear-gradient-125);}.cls-126{fill:url(#linear-gradient-126);}.cls-127{fill:url(#linear-gradient-127);}.cls-128{fill:url(#linear-gradient-128);}.cls-129{fill:url(#linear-gradient-129);}.cls-130{fill:url(#linear-gradient-130);}.cls-131{fill:url(#linear-gradient-131);}.cls-132{fill:url(#linear-gradient-132);}.cls-133{fill:url(#linear-gradient-133);}.cls-134{fill:url(#linear-gradient-134);}.cls-135{fill:url(#linear-gradient-135);}.cls-136{fill:url(#linear-gradient-136);}.cls-137{fill:url(#linear-gradient-137);}.cls-138{fill:url(#linear-gradient-138);}.cls-139{fill:url(#linear-gradient-139);}.cls-140{fill:url(#linear-gradient-140);}.cls-141{fill:url(#linear-gradient-141);}.cls-142{fill:url(#linear-gradient-142);}.cls-143{fill:url(#linear-gradient-143);}.cls-144{fill:url(#linear-gradient-144);}.cls-145{fill:url(#linear-gradient-145);}.cls-146{fill:url(#linear-gradient-146);}.cls-147{fill:url(#linear-gradient-147);}.cls-148{fill:url(#linear-gradient-148);}.cls-149{fill:url(#linear-gradient-149);}.cls-150{fill:url(#linear-gradient-150);}.cls-151{fill:url(#linear-gradient-151);}.cls-152{fill:url(#linear-gradient-152);}.cls-153{fill:url(#linear-gradient-153);}.cls-154{fill:url(#linear-gradient-154);}.cls-155{fill:url(#linear-gradient-155);}.cls-156{fill:url(#linear-gradient-156);}.cls-157{fill:url(#linear-gradient-157);}</style><linearGradient id="linear-gradient" x1="2.74" y1="49.88" x2="97.5" y2="49.88" gradientUnits="userSpaceOnUse"><stop offset="0" stop-color="#ff8787"/><stop offset="0.35" stop-color="#ff8885"/><stop offset="0.55" stop-color="#fe8d7c"/><stop offset="0.71" stop-color="#fe946f"/><stop offset="0.85" stop-color="#fd9f5b"/><stop offset="0.97" stop-color="#fbac42"/><stop offset="1" stop-color="#fbb03b"/></linearGradient><linearGradient id="linear-gradient-2" x1="34.42" y1="40.88" x2="47.83" y2="40.88" xlink:href="#linear-gradient"/><linearGradient id="linear-gradient-3" x1="35.12" y1="41.58" x2="48.54" y2="41.58" xlink:href="#linear-gradient"/><linearGradient id="linear-gradient-4" x1="35.82" y1="42.29" x2="49.24" y2="42.29" xlink:href="#linear-gradient"/><linearGradient id="linear-gradient-5" x1="36.53" y1="42.99" x2="49.94" y2="42.99" xlink:href="#linear-gradient"/><linearGradient id="linear-gradient-6" x1="37.23" y1="43.69" x2="50.65" y2="43.69" xlink:href="#linear-gradient"/><linearGradient id="linear-gradient-7" x1="37.93" y1="44.4" x2="51.35" y2="44.4" xlink:href="#linear-gradient"/><linearGradient id="linear-gradient-8" x1="38.63" y1="45.1" x2="52.05" y2="45.1" xlink:href="#linear-gradient"/><linearGradient id="linear-gradient-9" x1="39.34" y1="45.8" x2="52.76" y2="45.8" xlink:href="#linear-gradient"/><linearGradient id="linear-gradient-10" x1="40.04" y1="46.5" x2="53.46" y2="46.5" xlink:href="#linear-gradient"/><linearGradient id="linear-gradient-11" x1="40.74" y1="47.21" x2="54.16" y2="47.21" xlink:href="#linear-gradient"/><linearGradient id="linear-gradient-12" x1="41.45" y1="47.91" x2="54.86" y2="47.91" xlink:href="#linear-gradient"/><linearGradient id="linear-gradient-13" x1="42.15" y1="48.61" x2="55.57" y2="48.61" xlink:href="#linear-gradient"/><linearGradient id="linear-gradient-14" x1="42.85" y1="49.32" x2="56.27" y2="49.32" xlink:href="#linear-gradient"/><linearGradient id="linear-gradient-15" x1="43.56" y1="50.02" x2="56.97" y2="50.02" xlink:href="#linear-gradient"/><linearGradient id="linear-gradient-16" x1="44.26" y1="50.72" x2="57.68" y2="50.72" xlink:href="#linear-gradient"/><linearGradient id="linear-gradient-17" x1="44.96" y1="51.43" x2="58.38" y2="51.43" xlink:href="#linear-gradient"/><linearGradient id="linear-gradient-18" x1="45.66" y1="52.13" x2="59.08" y2="52.13" xlink:href="#linear-gradient"/><linearGradient id="linear-gradient-19" x1="46.37" y1="52.83" x2="59.79" y2="52.83" xlink:href="#linear-gradient"/><linearGradient id="linear-gradient-20" x1="47.07" y1="53.53" x2="60.49" y2="53.53" xlink:href="#linear-gradient"/><linearGradient id="linear-gradient-21" x1="47.77" y1="54.24" x2="61.19" y2="54.24" xlink:href="#linear-gradient"/><linearGradient id="linear-gradient-22" x1="48.48" y1="54.94" x2="61.89" y2="54.94" xlink:href="#linear-gradient"/><linearGradient id="linear-gradient-23" x1="49.18" y1="55.64" x2="62.6" y2="55.64" xlink:href="#linear-gradient"/><linearGradient id="linear-gradient-24" x1="49.88" y1="56.35" x2="63.3" y2="56.35" xlink:href="#linear-gradient"/><linearGradient id="linear-gradient-25" x1="50.59" y1="57.05" x2="64" y2="57.05" xlink:href="#linear-gradient"/><linearGradient id="linear-gradient-26" x1="51.29" y1="57.75" x2="64.71" y2="57.75" xlink:href="#linear-gradient"/><linearGradient id="linear-gradient-27" x1="51.99" y1="58.46" x2="65.41" y2="58.46" xlink:href="#linear-gradient"/><linearGradient id="linear-gradient-28" x1="52.69" y1="59.16" x2="66.11" y2="59.16" xlink:href="#linear-gradient"/><linearGradient id="linear-gradient-29" x1="53.45" y1="59.87" x2="66.86" y2="59.87" xlink:href="#linear-gradient"/><linearGradient id="linear-gradient-30" x1="54.24" y1="60.51" x2="67.66" y2="60.51" xlink:href="#linear-gradient"/><linearGradient id="linear-gradient-31" x1="55.08" y1="61.08" x2="68.5" y2="61.08" xlink:href="#linear-gradient"/><linearGradient id="linear-gradient-32" x1="55.95" y1="61.58" x2="69.36" y2="61.58" xlink:href="#linear-gradient"/><linearGradient id="linear-gradient-33" x1="56.84" y1="62.01" x2="70.26" y2="62.01" xlink:href="#linear-gradient"/><linearGradient id="linear-gradient-34" x1="57.76" y1="62.37" x2="71.18" y2="62.37" xlink:href="#linear-gradient"/><linearGradient id="linear-gradient-35" x1="58.7" y1="62.65" x2="72.12" y2="62.65" xlink:href="#linear-gradient"/><linearGradient id="linear-gradient-36" x1="59.65" y1="62.86" x2="73.07" y2="62.86" xlink:href="#linear-gradient"/><linearGradient id="linear-gradient-37" x1="60.61" y1="63" x2="74.03" y2="63" xlink:href="#linear-gradient"/><linearGradient id="linear-gradient-38" x1="61.58" y1="63.06" x2="75" y2="63.06" xlink:href="#linear-gradient"/><linearGradient id="linear-gradient-39" x1="62.55" y1="63.06" x2="75.97" y2="63.06" xlink:href="#linear-gradient"/><linearGradient id="linear-gradient-40" x1="63.52" y1="62.98" x2="76.94" y2="62.98" xlink:href="#linear-gradient"/><linearGradient id="linear-gradient-41" x1="64.49" y1="62.83" x2="77.9" y2="62.83" xlink:href="#linear-gradient"/><linearGradient id="linear-gradient-42" x1="65.44" y1="62.61" x2="78.85" y2="62.61" xlink:href="#linear-gradient"/><linearGradient id="linear-gradient-43" x1="66.37" y1="62.31" x2="79.79" y2="62.31" xlink:href="#linear-gradient"/><linearGradient id="linear-gradient-44" x1="67.29" y1="61.95" x2="80.7" y2="61.95" xlink:href="#linear-gradient"/><linearGradient id="linear-gradient-45" x1="68.18" y1="61.51" x2="81.6" y2="61.51" xlink:href="#linear-gradient"/><linearGradient id="linear-gradient-46" x1="69.04" y1="61" x2="82.46" y2="61" xlink:href="#linear-gradient"/><linearGradient id="linear-gradient-47" x1="69.87" y1="60.41" x2="83.29" y2="60.41" xlink:href="#linear-gradient"/><linearGradient id="linear-gradient-48" x1="70.66" y1="59.76" x2="84.08" y2="59.76" xlink:href="#linear-gradient"/><linearGradient id="linear-gradient-49" x1="71.41" y1="59.03" x2="84.83" y2="59.03" xlink:href="#linear-gradient"/><linearGradient id="linear-gradient-50" x1="72.09" y1="58.25" x2="85.51" y2="58.25" xlink:href="#linear-gradient"/><linearGradient id="linear-gradient-51" x1="72.7" y1="57.44" x2="86.12" y2="57.44" xlink:href="#linear-gradient"/><linearGradient id="linear-gradient-52" x1="73.24" y1="56.59" x2="86.66" y2="56.59" xlink:href="#linear-gradient"/><linearGradient id="linear-gradient-53" x1="73.71" y1="55.71" x2="87.13" y2="55.71" xlink:href="#linear-gradient"/><linearGradient id="linear-gradient-54" x1="74.1" y1="54.8" x2="87.52" y2="54.8" xlink:href="#linear-gradient"/><linearGradient id="linear-gradient-55" x1="74.42" y1="53.87" x2="87.84" y2="53.87" xlink:href="#linear-gradient"/><linearGradient id="linear-gradient-56" x1="74.67" y1="52.93" x2="88.09" y2="52.93" xlink:href="#linear-gradient"/><linearGradient id="linear-gradient-57" x1="74.85" y1="51.97" x2="88.27" y2="51.97" xlink:href="#linear-gradient"/><linearGradient id="linear-gradient-58" x1="74.96" y1="51" x2="88.37" y2="51" xlink:href="#linear-gradient"/><linearGradient id="linear-gradient-59" x1="74.99" y1="50.03" x2="88.41" y2="50.03" xlink:href="#linear-gradient"/><linearGradient id="linear-gradient-60" x1="74.95" y1="49.06" x2="88.37" y2="49.06" xlink:href="#linear-gradient"/><linearGradient id="linear-gradient-61" x1="74.84" y1="48.1" x2="88.26" y2="48.1" xlink:href="#linear-gradient"/><linearGradient id="linear-gradient-62" x1="74.66" y1="47.14" x2="88.07" y2="47.14" xlink:href="#linear-gradient"/><linearGradient id="linear-gradient-63" x1="74.4" y1="46.19" x2="87.82" y2="46.19" xlink:href="#linear-gradient"/><linearGradient id="linear-gradient-64" x1="74.07" y1="45.27" x2="87.49" y2="45.27" xlink:href="#linear-gradient"/><linearGradient id="linear-gradient-65" x1="73.67" y1="44.36" x2="87.09" y2="44.36" xlink:href="#linear-gradient"/><linearGradient id="linear-gradient-66" x1="73.2" y1="43.48" x2="86.62" y2="43.48" xlink:href="#linear-gradient"/><linearGradient id="linear-gradient-67" x1="72.66" y1="42.64" x2="86.07" y2="42.64" xlink:href="#linear-gradient"/><linearGradient id="linear-gradient-68" x1="72.04" y1="41.83" x2="85.46" y2="41.83" xlink:href="#linear-gradient"/><linearGradient id="linear-gradient-69" x1="71.35" y1="41.05" x2="84.77" y2="41.05" xlink:href="#linear-gradient"/><linearGradient id="linear-gradient-70" x1="70.6" y1="40.33" x2="84.02" y2="40.33" xlink:href="#linear-gradient"/><linearGradient id="linear-gradient-71" x1="69.8" y1="39.68" x2="83.22" y2="39.68" xlink:href="#linear-gradient"/><linearGradient id="linear-gradient-72" x1="68.97" y1="39.1" x2="82.39" y2="39.1" xlink:href="#linear-gradient"/><linearGradient id="linear-gradient-73" x1="68.11" y1="38.6" x2="81.52" y2="38.6" xlink:href="#linear-gradient"/><linearGradient id="linear-gradient-74" x1="67.21" y1="38.17" x2="80.63" y2="38.17" xlink:href="#linear-gradient"/><linearGradient id="linear-gradient-75" x1="66.3" y1="37.8" x2="79.72" y2="37.8" xlink:href="#linear-gradient"/><linearGradient id="linear-gradient-76" x1="65.36" y1="37.52" x2="78.78" y2="37.52" xlink:href="#linear-gradient"/><linearGradient id="linear-gradient-77" x1="64.41" y1="37.3" x2="77.83" y2="37.3" xlink:href="#linear-gradient"/><linearGradient id="linear-gradient-78" x1="63.45" y1="37.15" x2="76.86" y2="37.15" xlink:href="#linear-gradient"/><linearGradient id="linear-gradient-79" x1="62.48" y1="37.08" x2="75.89" y2="37.08" xlink:href="#linear-gradient"/><linearGradient id="linear-gradient-80" x1="61.5" y1="37.08" x2="74.92" y2="37.08" xlink:href="#linear-gradient"/><linearGradient id="linear-gradient-81" x1="60.54" y1="37.15" x2="73.95" y2="37.15" xlink:href="#linear-gradient"/><linearGradient id="linear-gradient-82" x1="59.57" y1="37.3" x2="72.99" y2="37.3" xlink:href="#linear-gradient"/><linearGradient id="linear-gradient-83" x1="58.62" y1="37.52" x2="72.04" y2="37.52" xlink:href="#linear-gradient"/><linearGradient id="linear-gradient-84" x1="57.68" y1="37.8" x2="71.1" y2="37.8" xlink:href="#linear-gradient"/><linearGradient id="linear-gradient-85" x1="56.77" y1="38.17" x2="70.19" y2="38.17" xlink:href="#linear-gradient"/><linearGradient id="linear-gradient-86" x1="55.87" y1="38.6" x2="69.29" y2="38.6" xlink:href="#linear-gradient"/><linearGradient id="linear-gradient-87" x1="55.01" y1="39.1" x2="68.43" y2="39.1" xlink:href="#linear-gradient"/><linearGradient id="linear-gradient-88" x1="54.18" y1="39.68" x2="67.6" y2="39.68" xlink:href="#linear-gradient"/><linearGradient id="linear-gradient-89" x1="53.38" y1="40.33" x2="66.8" y2="40.33" xlink:href="#linear-gradient"/><linearGradient id="linear-gradient-90" x1="52.64" y1="41.04" x2="66.06" y2="41.04" xlink:href="#linear-gradient"/><linearGradient id="linear-gradient-91" x1="51.93" y1="41.75" x2="65.35" y2="41.75" xlink:href="#linear-gradient"/><linearGradient id="linear-gradient-92" x1="51.23" y1="42.45" x2="64.65" y2="42.45" xlink:href="#linear-gradient"/><linearGradient id="linear-gradient-93" x1="50.53" y1="43.15" x2="63.95" y2="43.15" xlink:href="#linear-gradient"/><linearGradient id="linear-gradient-94" x1="49.83" y1="43.85" x2="63.24" y2="43.85" xlink:href="#linear-gradient"/><linearGradient id="linear-gradient-95" x1="49.12" y1="44.56" x2="62.54" y2="44.56" xlink:href="#linear-gradient"/><linearGradient id="linear-gradient-96" x1="48.42" y1="45.26" x2="61.84" y2="45.26" xlink:href="#linear-gradient"/><linearGradient id="linear-gradient-97" x1="47.72" y1="45.96" x2="61.13" y2="45.96" xlink:href="#linear-gradient"/><linearGradient id="linear-gradient-98" x1="47.01" y1="46.67" x2="60.43" y2="46.67" xlink:href="#linear-gradient"/><linearGradient id="linear-gradient-99" x1="46.31" y1="47.37" x2="59.73" y2="47.37" xlink:href="#linear-gradient"/><linearGradient id="linear-gradient-100" x1="45.61" y1="48.07" x2="59.03" y2="48.07" xlink:href="#linear-gradient"/><linearGradient id="linear-gradient-101" x1="44.91" y1="48.78" x2="58.32" y2="48.78" xlink:href="#linear-gradient"/><linearGradient id="linear-gradient-102" x1="44.2" y1="49.48" x2="57.62" y2="49.48" xlink:href="#linear-gradient"/><linearGradient id="linear-gradient-103" x1="43.5" y1="50.18" x2="56.92" y2="50.18" xlink:href="#linear-gradient"/><linearGradient id="linear-gradient-104" x1="42.8" y1="50.88" x2="56.21" y2="50.88" xlink:href="#linear-gradient"/><linearGradient id="linear-gradient-105" x1="42.09" y1="51.59" x2="55.51" y2="51.59" xlink:href="#linear-gradient"/><linearGradient id="linear-gradient-106" x1="41.39" y1="52.29" x2="54.81" y2="52.29" xlink:href="#linear-gradient"/><linearGradient id="linear-gradient-107" x1="40.69" y1="52.99" x2="54.11" y2="52.99" xlink:href="#linear-gradient"/><linearGradient id="linear-gradient-108" x1="39.98" y1="53.7" x2="53.4" y2="53.7" xlink:href="#linear-gradient"/><linearGradient id="linear-gradient-109" x1="39.28" y1="54.4" x2="52.7" y2="54.4" xlink:href="#linear-gradient"/><linearGradient id="linear-gradient-110" x1="38.58" y1="55.1" x2="52" y2="55.1" xlink:href="#linear-gradient"/><linearGradient id="linear-gradient-111" x1="37.88" y1="55.81" x2="51.29" y2="55.81" xlink:href="#linear-gradient"/><linearGradient id="linear-gradient-112" x1="37.17" y1="56.51" x2="50.59" y2="56.51" xlink:href="#linear-gradient"/><linearGradient id="linear-gradient-113" x1="36.47" y1="57.21" x2="49.89" y2="57.21" xlink:href="#linear-gradient"/><linearGradient id="linear-gradient-114" x1="35.77" y1="57.91" x2="49.18" y2="57.91" xlink:href="#linear-gradient"/><linearGradient id="linear-gradient-115" x1="35.06" y1="58.62" x2="48.48" y2="58.62" xlink:href="#linear-gradient"/><linearGradient id="linear-gradient-116" x1="34.36" y1="59.32" x2="47.77" y2="59.32" xlink:href="#linear-gradient"/><linearGradient id="linear-gradient-117" x1="33.59" y1="60.02" x2="47.01" y2="60.02" xlink:href="#linear-gradient"/><linearGradient id="linear-gradient-118" x1="32.78" y1="60.65" x2="46.2" y2="60.65" xlink:href="#linear-gradient"/><linearGradient id="linear-gradient-119" x1="31.94" y1="61.2" x2="45.36" y2="61.2" xlink:href="#linear-gradient"/><linearGradient id="linear-gradient-120" x1="31.07" y1="61.69" x2="44.49" y2="61.69" xlink:href="#linear-gradient"/><linearGradient id="linear-gradient-121" x1="30.17" y1="62.1" x2="43.58" y2="62.1" xlink:href="#linear-gradient"/><linearGradient id="linear-gradient-122" x1="29.24" y1="62.44" x2="42.66" y2="62.44" xlink:href="#linear-gradient"/><linearGradient id="linear-gradient-123" x1="28.3" y1="62.7" x2="41.72" y2="62.7" xlink:href="#linear-gradient"/><linearGradient id="linear-gradient-124" x1="27.35" y1="62.9" x2="40.76" y2="62.9" xlink:href="#linear-gradient"/><linearGradient id="linear-gradient-125" x1="26.38" y1="63.02" x2="39.8" y2="63.02" xlink:href="#linear-gradient"/><linearGradient id="linear-gradient-126" x1="25.41" y1="63.07" x2="38.83" y2="63.07" xlink:href="#linear-gradient"/><linearGradient id="linear-gradient-127" x1="24.44" y1="63.05" x2="37.86" y2="63.05" xlink:href="#linear-gradient"/><linearGradient id="linear-gradient-128" x1="23.47" y1="62.95" x2="36.89" y2="62.95" xlink:href="#linear-gradient"/><linearGradient id="linear-gradient-129" x1="22.51" y1="62.79" x2="35.93" y2="62.79" xlink:href="#linear-gradient"/><linearGradient id="linear-gradient-130" x1="21.56" y1="62.55" x2="34.98" y2="62.55" xlink:href="#linear-gradient"/><linearGradient id="linear-gradient-131" x1="20.63" y1="62.24" x2="34.05" y2="62.24" xlink:href="#linear-gradient"/><linearGradient id="linear-gradient-132" x1="19.72" y1="61.85" x2="33.14" y2="61.85" xlink:href="#linear-gradient"/><linearGradient id="linear-gradient-133" x1="18.84" y1="61.4" x2="32.26" y2="61.4" xlink:href="#linear-gradient"/><linearGradient id="linear-gradient-134" x1="17.98" y1="60.87" x2="31.4" y2="60.87" xlink:href="#linear-gradient"/><linearGradient id="linear-gradient-135" x1="17.16" y1="60.27" x2="30.58" y2="60.27" xlink:href="#linear-gradient"/><linearGradient id="linear-gradient-136" x1="16.38" y1="59.6" x2="29.8" y2="59.6" xlink:href="#linear-gradient"/><linearGradient id="linear-gradient-137" x1="15.64" y1="58.86" x2="29.06" y2="58.86" xlink:href="#linear-gradient"/><linearGradient id="linear-gradient-138" x1="14.98" y1="58.07" x2="28.4" y2="58.07" xlink:href="#linear-gradient"/><linearGradient id="linear-gradient-139" x1="14.38" y1="57.25" x2="27.8" y2="57.25" xlink:href="#linear-gradient"/><linearGradient id="linear-gradient-140" x1="13.86" y1="56.39" x2="27.28" y2="56.39" xlink:href="#linear-gradient"/><linearGradient id="linear-gradient-141" x1="13.41" y1="55.5" x2="26.83" y2="55.5" xlink:href="#linear-gradient"/><linearGradient id="linear-gradient-142" x1="13.03" y1="54.59" x2="26.45" y2="54.59" xlink:href="#linear-gradient"/><linearGradient id="linear-gradient-143" x1="12.73" y1="53.66" x2="26.15" y2="53.66" xlink:href="#linear-gradient"/><linearGradient id="linear-gradient-144" x1="12.5" y1="52.71" x2="25.91" y2="52.71" xlink:href="#linear-gradient"/><linearGradient id="linear-gradient-145" x1="12.34" y1="51.75" x2="25.75" y2="51.75" xlink:href="#linear-gradient"/><linearGradient id="linear-gradient-146" x1="12.25" y1="50.78" x2="25.66" y2="50.78" xlink:href="#linear-gradient"/><linearGradient id="linear-gradient-147" x1="12.23" y1="49.81" x2="25.65" y2="49.81" xlink:href="#linear-gradient"/><linearGradient id="linear-gradient-148" x1="12.29" y1="48.84" x2="25.7" y2="48.84" xlink:href="#linear-gradient"/><linearGradient id="linear-gradient-149" x1="12.41" y1="47.87" x2="25.83" y2="47.87" xlink:href="#linear-gradient"/><linearGradient id="linear-gradient-150" x1="12.61" y1="46.92" x2="26.03" y2="46.92" xlink:href="#linear-gradient"/><linearGradient id="linear-gradient-151" x1="12.89" y1="45.98" x2="26.3" y2="45.98" xlink:href="#linear-gradient"/><linearGradient id="linear-gradient-152" x1="13.23" y1="45.06" x2="26.65" y2="45.06" xlink:href="#linear-gradient"/><linearGradient id="linear-gradient-153" x1="13.65" y1="44.16" x2="27.06" y2="44.16" xlink:href="#linear-gradient"/><linearGradient id="linear-gradient-154" x1="14.14" y1="43.29" x2="27.55" y2="43.29" xlink:href="#linear-gradient"/><linearGradient id="linear-gradient-155" x1="14.7" y1="42.45" x2="28.11" y2="42.45" xlink:href="#linear-gradient"/><linearGradient id="linear-gradient-156" x1="15.33" y1="41.64" x2="28.75" y2="41.64" xlink:href="#linear-gradient"/><linearGradient id="linear-gradient-157" x1="16.03" y1="40.88" x2="29.45" y2="40.88" xlink:href="#linear-gradient"/></defs><rect class="cls-1" x="3.74" y="3.5" width="92.76" height="92.76" rx="12.89"/><circle class="cls-2" cx="41.13" cy="40.88" r="6.71"/><circle class="cls-3" cx="41.83" cy="41.58" r="6.71"/><circle class="cls-4" cx="42.53" cy="42.29" r="6.71"/><circle class="cls-5" cx="43.23" cy="42.99" r="6.71"/><circle class="cls-6" cx="43.94" cy="43.69" r="6.71"/><circle class="cls-7" cx="44.64" cy="44.4" r="6.71"/><circle class="cls-8" cx="45.34" cy="45.1" r="6.71"/><circle class="cls-9" cx="46.05" cy="45.8" r="6.71"/><circle class="cls-10" cx="46.75" cy="46.5" r="6.71"/><circle class="cls-11" cx="47.45" cy="47.21" r="6.71"/><circle class="cls-12" cx="48.16" cy="47.91" r="6.71"/><circle class="cls-13" cx="48.86" cy="48.61" r="6.71"/><circle class="cls-14" cx="49.56" cy="49.32" r="6.71"/><circle class="cls-15" cx="50.26" cy="50.02" r="6.71"/><circle class="cls-16" cx="50.97" cy="50.72" r="6.71"/><circle class="cls-17" cx="51.67" cy="51.43" r="6.71"/><circle class="cls-18" cx="52.37" cy="52.13" r="6.71"/><circle class="cls-19" cx="53.08" cy="52.83" r="6.71"/><circle class="cls-20" cx="53.78" cy="53.53" r="6.71"/><circle class="cls-21" cx="54.48" cy="54.24" r="6.71"/><circle class="cls-22" cx="55.19" cy="54.94" r="6.71"/><circle class="cls-23" cx="55.89" cy="55.64" r="6.71"/><circle class="cls-24" cx="56.59" cy="56.35" r="6.71"/><circle class="cls-25" cx="57.29" cy="57.05" r="6.71"/><circle class="cls-26" cx="58" cy="57.75" r="6.71"/><circle class="cls-27" cx="58.7" cy="58.46" r="6.71"/><circle class="cls-28" cx="59.4" cy="59.16" r="6.71"/><circle class="cls-29" cx="60.16" cy="59.87" r="6.71"/><circle class="cls-30" cx="60.95" cy="60.51" r="6.71"/><circle class="cls-31" cx="61.79" cy="61.08" r="6.71"/><circle class="cls-32" cx="62.65" cy="61.58" r="6.71"/><circle class="cls-33" cx="63.55" cy="62.01" r="6.71"/><circle class="cls-34" cx="64.47" cy="62.37" r="6.71"/><circle class="cls-35" cx="65.41" cy="62.65" r="6.71"/><circle class="cls-36" cx="66.36" cy="62.86" r="6.71"/><circle class="cls-37" cx="67.32" cy="63" r="6.71"/><circle class="cls-38" cx="68.29" cy="63.06" r="6.71"/><circle class="cls-39" cx="69.26" cy="63.06" r="6.71"/><circle class="cls-40" cx="70.23" cy="62.98" r="6.71"/><circle class="cls-41" cx="71.19" cy="62.83" r="6.71"/><circle class="cls-42" cx="72.15" cy="62.61" r="6.71"/><circle class="cls-43" cx="73.08" cy="62.31" r="6.71"/><circle class="cls-44" cx="74" cy="61.95" r="6.71"/><circle class="cls-45" cx="74.89" cy="61.51" r="6.71"/><circle class="cls-46" cx="75.75" cy="61" r="6.71"/><circle class="cls-47" cx="76.58" cy="60.41" r="6.71"/><circle class="cls-48" cx="77.37" cy="59.76" r="6.71"/><circle class="cls-49" cx="78.12" cy="59.03" r="6.71"/><circle class="cls-50" cx="78.8" cy="58.25" r="6.71"/><circle class="cls-51" cx="79.41" cy="57.44" r="6.71"/><circle class="cls-52" cx="79.95" cy="56.59" r="6.71"/><circle class="cls-53" cx="80.42" cy="55.71" r="6.71"/><circle class="cls-54" cx="80.81" cy="54.8" r="6.71"/><circle class="cls-55" cx="81.13" cy="53.87" r="6.71"/><circle class="cls-56" cx="81.38" cy="52.93" r="6.71"/><circle class="cls-57" cx="81.56" cy="51.97" r="6.71"/><circle class="cls-58" cx="81.66" cy="51" r="6.71"/><circle class="cls-59" cx="81.7" cy="50.03" r="6.71"/><circle class="cls-60" cx="81.66" cy="49.06" r="6.71"/><circle class="cls-61" cx="81.55" cy="48.1" r="6.71"/><circle class="cls-62" cx="81.36" cy="47.14" r="6.71"/><circle class="cls-63" cx="81.11" cy="46.19" r="6.71"/><circle class="cls-64" cx="80.78" cy="45.27" r="6.71"/><circle class="cls-65" cx="80.38" cy="44.36" r="6.71"/><circle class="cls-66" cx="79.91" cy="43.48" r="6.71"/><circle class="cls-67" cx="79.36" cy="42.64" r="6.71"/><circle class="cls-68" cx="78.75" cy="41.83" r="6.71"/><circle class="cls-69" cx="78.06" cy="41.05" r="6.71"/><circle class="cls-70" cx="77.31" cy="40.33" r="6.71"/><circle class="cls-71" cx="76.51" cy="39.68" r="6.71"/><circle class="cls-72" cx="75.68" cy="39.1" r="6.71"/><circle class="cls-73" cx="74.82" cy="38.6" r="6.71"/><circle class="cls-74" cx="73.92" cy="38.17" r="6.71"/><circle class="cls-75" cx="73.01" cy="37.8" r="6.71"/><circle class="cls-76" cx="72.07" cy="37.52" r="6.71"/><circle class="cls-77" cx="71.12" cy="37.3" r="6.71"/><circle class="cls-78" cx="70.15" cy="37.15" r="6.71"/><circle class="cls-79" cx="69.19" cy="37.08" r="6.71"/><circle class="cls-80" cx="68.21" cy="37.08" r="6.71"/><circle class="cls-81" cx="67.24" cy="37.15" r="6.71"/><circle class="cls-82" cx="66.28" cy="37.3" r="6.71"/><circle class="cls-83" cx="65.33" cy="37.52" r="6.71"/><circle class="cls-84" cx="64.39" cy="37.8" r="6.71"/><circle class="cls-85" cx="63.48" cy="38.17" r="6.71"/><circle class="cls-86" cx="62.58" cy="38.6" r="6.71"/><circle class="cls-87" cx="61.72" cy="39.1" r="6.71"/><circle class="cls-88" cx="60.89" cy="39.68" r="6.71"/><circle class="cls-89" cx="60.09" cy="40.33" r="6.71"/><circle class="cls-90" cx="59.35" cy="41.04" r="6.71"/><circle class="cls-91" cx="58.64" cy="41.75" r="6.71"/><circle class="cls-92" cx="57.94" cy="42.45" r="6.71"/><circle class="cls-93" cx="57.24" cy="43.15" r="6.71"/><circle class="cls-94" cx="56.53" cy="43.85" r="6.71"/><circle class="cls-95" cx="55.83" cy="44.56" r="6.71"/><circle class="cls-96" cx="55.13" cy="45.26" r="6.71"/><circle class="cls-97" cx="54.43" cy="45.96" r="6.71"/><circle class="cls-98" cx="53.72" cy="46.67" r="6.71"/><circle class="cls-99" cx="53.02" cy="47.37" r="6.71"/><circle class="cls-100" cx="52.32" cy="48.07" r="6.71"/><circle class="cls-101" cx="51.61" cy="48.78" r="6.71"/><circle class="cls-102" cx="50.91" cy="49.48" r="6.71"/><circle class="cls-103" cx="50.21" cy="50.18" r="6.71"/><circle class="cls-104" cx="49.51" cy="50.88" r="6.71"/><circle class="cls-105" cx="48.8" cy="51.59" r="6.71"/><circle class="cls-106" cx="48.1" cy="52.29" r="6.71"/><circle class="cls-107" cx="47.4" cy="52.99" r="6.71"/><circle class="cls-108" cx="46.69" cy="53.7" r="6.71"/><circle class="cls-109" cx="45.99" cy="54.4" r="6.71"/><circle class="cls-110" cx="45.29" cy="55.1" r="6.71"/><circle class="cls-111" cx="44.58" cy="55.81" r="6.71"/><circle class="cls-112" cx="43.88" cy="56.51" r="6.71"/><circle class="cls-113" cx="43.18" cy="57.21" r="6.71"/><circle class="cls-114" cx="42.48" cy="57.91" r="6.71"/><circle class="cls-115" cx="41.77" cy="58.62" r="6.71"/><circle class="cls-116" cx="41.07" cy="59.32" r="6.71"/><circle class="cls-117" cx="40.3" cy="60.02" r="6.71"/><circle class="cls-118" cx="39.49" cy="60.65" r="6.71"/><circle class="cls-119" cx="38.65" cy="61.2" r="6.71"/><circle class="cls-120" cx="37.78" cy="61.69" r="6.71"/><circle class="cls-121" cx="36.88" cy="62.1" r="6.71"/><circle class="cls-122" cx="35.95" cy="62.44" r="6.71"/><circle class="cls-123" cx="35.01" cy="62.7" r="6.71"/><circle class="cls-124" cx="34.05" cy="62.9" r="6.71"/><circle class="cls-125" cx="33.09" cy="63.02" r="6.71"/><circle class="cls-126" cx="32.12" cy="63.07" r="6.71"/><circle class="cls-127" cx="31.15" cy="63.05" r="6.71"/><circle class="cls-128" cx="30.18" cy="62.95" r="6.71"/><circle class="cls-129" cx="29.22" cy="62.79" r="6.71"/><circle class="cls-130" cx="28.27" cy="62.55" r="6.71"/><circle class="cls-131" cx="27.34" cy="62.24" r="6.71"/><circle class="cls-132" cx="26.43" cy="61.85" r="6.71"/><circle class="cls-133" cx="25.55" cy="61.4" r="6.71"/><circle class="cls-134" cx="24.69" cy="60.87" r="6.71"/><circle class="cls-135" cx="23.87" cy="60.27" r="6.71"/><circle class="cls-136" cx="23.09" cy="59.6" r="6.71"/><circle class="cls-137" cx="22.35" cy="58.86" r="6.71"/><circle class="cls-138" cx="21.69" cy="58.07" r="6.71"/><circle class="cls-139" cx="21.09" cy="57.25" r="6.71"/><circle class="cls-140" cx="20.57" cy="56.39" r="6.71"/><circle class="cls-141" cx="20.12" cy="55.5" r="6.71"/><circle class="cls-142" cx="19.74" cy="54.59" r="6.71"/><circle class="cls-143" cx="19.44" cy="53.66" r="6.71"/><circle class="cls-144" cx="19.21" cy="52.71" r="6.71"/><circle class="cls-145" cx="19.04" cy="51.75" r="6.71"/><circle class="cls-146" cx="18.96" cy="50.78" r="6.71"/><circle class="cls-147" cx="18.94" cy="49.81" r="6.71"/><circle class="cls-148" cx="18.99" cy="48.84" r="6.71"/><circle class="cls-149" cx="19.12" cy="47.87" r="6.71"/><circle class="cls-150" cx="19.32" cy="46.92" r="6.71"/><circle class="cls-151" cx="19.59" cy="45.98" r="6.71"/><circle class="cls-152" cx="19.94" cy="45.06" r="6.71"/><circle class="cls-153" cx="20.36" cy="44.16" r="6.71"/><circle class="cls-154" cx="20.84" cy="43.29" r="6.71"/><circle class="cls-155" cx="21.4" cy="42.45" r="6.71"/><circle class="cls-156" cx="22.04" cy="41.64" r="6.71"/><circle class="cls-157" cx="22.74" cy="40.88" r="6.71"/></svg>